<?xml version="1.0" encoding="iso-8859-1"?>
<!-- Generator: Adobe Illustrator 19.0.0, SVG Export Plug-In . SVG Version: 6.00 Build 0)  -->
<svg version="1.1" id="Layer_1" xmlns="http://www.w3.org/2000/svg" xmlns:xlink="http://www.w3.org/1999/xlink" x="0px" y="0px"
	 viewBox="0 0 512 512" style="enable-background:new 0 0 512 512;" xml:space="preserve">
<circle style="fill:#FFA91F;" cx="256" cy="256" r="256"/>
<path style="fill:#E67500;" d="M512,256c0-27.636-4.397-54.242-12.5-79.176L374.057,51.38c-3.061-5.292-8.773-8.88-15.294-8.88
	H153.237c-9.718,0-17.669,7.951-17.669,17.669v391.662c0,6.521,3.589,12.233,8.88,15.294l32.376,32.376
	C201.758,507.603,228.364,512,256,512C397.385,512,512,397.385,512,256z"/>
<path style="fill:#004EB1;" d="M358.763,469.5H153.237c-9.718,0-17.669-7.951-17.669-17.669V60.169
	c0-9.718,7.951-17.669,17.669-17.669h205.526c9.718,0,17.669,7.951,17.669,17.669v391.662
	C376.432,461.549,368.481,469.5,358.763,469.5z"/>
<path style="fill:#002D6B;" d="M376.43,60.17v391.66c0,9.72-7.95,17.67-17.67,17.67H256v-427h102.76
	C368.48,42.5,376.43,50.45,376.43,60.17z"/>
<rect x="157.6" y="71.985" style="fill:#FFFFFF;" width="196.8" height="336.77"/>
<rect x="256" y="71.98" style="fill:#E1E1E3;" width="98.4" height="336.77"/>
<rect x="223.85" y="425.81" style="fill:#00F8FE;" width="64.3" height="25.933"/>
<rect x="256" y="425.81" style="fill:#00D9E0;" width="32.15" height="25.93"/>
<rect x="189.04" y="272.25" style="fill:#FF4F19;" width="133.93" height="25.22"/>
<rect x="256" y="272.25" style="fill:#EE2600;" width="66.96" height="25.22"/>
<rect x="189.04" y="326.6" style="fill:#FF4F19;" width="133.93" height="25.22"/>
<rect x="256" y="326.6" style="fill:#EE2600;" width="66.96" height="25.23"/>
<circle style="fill:#FFB84D;" cx="256" cy="185.49" r="56.57"/>
<path style="fill:#FF8900;" d="M312.57,185.48c0,31.25-25.33,56.58-56.57,56.58V128.91C287.24,128.91,312.57,154.24,312.57,185.48z"
	/>
<g>
</g>
<g>
</g>
<g>
</g>
<g>
</g>
<g>
</g>
<g>
</g>
<g>
</g>
<g>
</g>
<g>
</g>
<g>
</g>
<g>
</g>
<g>
</g>
<g>
</g>
<g>
</g>
<g>
</g>
</svg>
