<svg xmlns="http://www.w3.org/2000/svg" width="380" height="150" viewBox="0 0 380 150">
  <metadata><?xpacket begin="﻿" id="W5M0MpCehiHzreSzNTczkc9d"?>
<x:xmpmeta xmlns:x="adobe:ns:meta/" x:xmptk="Adobe XMP Core 5.6-c138 79.159824, 2016/09/14-01:09:01        ">
   <rdf:RDF xmlns:rdf="http://www.w3.org/1999/02/22-rdf-syntax-ns#">
      <rdf:Description rdf:about=""/>
   </rdf:RDF>
</x:xmpmeta>
                                                                                                    
                                                                                                    
                                                                                                    
                                                                                                    
                                                                                                    
                                                                                                    
                                                                                                    
                                                                                                    
                                                                                                    
                                                                                                    
                                                                                                    
                                                                                                    
                                                                                                    
                                                                                                    
                                                                                                    
                                                                                                    
                                                                                                    
                                                                                                    
                                                                                                    
                                                                                                    
                           
<?xpacket end="w"?></metadata>
<defs>
    <style>
      .cls-1 {
        opacity: 0.1;
      }

      .cls-2 {
        fill-rule: evenodd;
      }
    </style>
  </defs>
  <g id="icons" class="cls-1">
    <path id="Forma_1" data-name="Forma 1" class="cls-2" d="M142.069,107.463h-10.65a5.739,5.739,0,0,0,.3-5.7,5.991,5.991,0,0,0-5.4-3.275,6.077,6.077,0,0,0-2.652.6,12.382,12.382,0,0,0-4.7,4.59,12.373,12.373,0,0,0-4.7-4.591,6.082,6.082,0,0,0-2.652-.6,5.993,5.993,0,0,0-5.4,3.274,5.741,5.741,0,0,0,.305,5.7H95.879a1.927,1.927,0,0,0-1.945,1.9V119.2a1.927,1.927,0,0,0,1.945,1.9H96.41v21.615a3.7,3.7,0,0,0,3.75,3.659h37.627a3.706,3.706,0,0,0,3.751-3.659V121.1h0.531a1.928,1.928,0,0,0,1.945-1.9V109.36A1.928,1.928,0,0,0,142.069,107.463ZM125.393,102.5a2.18,2.18,0,0,1,2.842.943,2.051,2.051,0,0,1-.965,2.774,7.23,7.23,0,0,1-3.107.583,13.867,13.867,0,0,1-1.586-.1,3.62,3.62,0,0,0-.383-0.858A8.9,8.9,0,0,1,125.393,102.5Zm-15.68.942a2.148,2.148,0,0,1,2.84-.942,8.91,8.91,0,0,1,3.2,3.337,3.627,3.627,0,0,0-.383.859,13.625,13.625,0,0,1-1.585.1,7.241,7.241,0,0,1-3.106-.582A2.054,2.054,0,0,1,109.713,103.437Zm7.4,38.193H101.272v-8.61h15.839v8.61Zm-15.839-12.4V121.1h15.839v8.126H101.272Zm35.4,12.405H120.837v-8.61h15.839v8.61Zm0-12.4H120.837V121.1h15.839v8.126Z"/>
    <path id="Forma_1_copy_4" data-name="Forma 1 copy 4" class="cls-2" d="M275.237,110.341h-10.65a5.742,5.742,0,0,0,.305-5.7,5.994,5.994,0,0,0-5.4-3.276,6.083,6.083,0,0,0-2.653.6,12.38,12.38,0,0,0-4.7,4.59,12.372,12.372,0,0,0-4.7-4.591,6.088,6.088,0,0,0-2.652-.6,6,6,0,0,0-5.4,3.275,5.741,5.741,0,0,0,.305,5.7H229.048a1.927,1.927,0,0,0-1.945,1.9v9.843a1.927,1.927,0,0,0,1.945,1.9h0.531v21.615a3.7,3.7,0,0,0,3.749,3.659h37.627a3.705,3.705,0,0,0,3.751-3.659V123.978h0.531a1.927,1.927,0,0,0,1.945-1.9v-9.843A1.927,1.927,0,0,0,275.237,110.341Zm-16.676-4.968a2.18,2.18,0,0,1,2.842.943,2.051,2.051,0,0,1-.965,2.774,7.23,7.23,0,0,1-3.107.583,13.9,13.9,0,0,1-1.586-.1,3.58,3.58,0,0,0-.383-0.858A8.9,8.9,0,0,1,258.561,105.373Zm-15.68.942a2.151,2.151,0,0,1,2.84-.942,8.92,8.92,0,0,1,3.2,3.337,3.548,3.548,0,0,0-.383.859,13.655,13.655,0,0,1-1.585.1,7.235,7.235,0,0,1-3.106-.582A2.053,2.053,0,0,1,242.881,106.315Zm7.4,38.193H234.441V135.9h15.838v8.61Zm-15.838-12.4v-8.126h15.838V132.1H234.441Zm35.4,12.405H254.005V135.9h15.839v8.61Zm0-12.4H254.005v-8.126h15.839V132.1Z"/>
    <path class="cls-2" d="M-8.739,63.242h0A1.908,1.908,0,0,0-10.1,63.8a1.915,1.915,0,0,0-.569,1.367V94.056a1.936,1.936,0,0,0,1.935,1.926c4.5,0.011,12.035.945,17.234,6.369V72.119a1.842,1.842,0,0,0-.266-0.976C3.97,64.293-4.23,63.252-8.739,63.242Zm39.41,30.815V65.168a1.926,1.926,0,0,0-1.923-1.927h0c-4.508.011-12.708,1.052-16.976,7.9a1.842,1.842,0,0,0-.265.976v30.232c5.2-5.424,12.735-6.358,17.234-6.369A1.936,1.936,0,0,0,30.671,94.056Zm4.4-24.153h-1.4V94.056a4.936,4.936,0,0,1-4.928,4.917c-3.815.009-10.107,0.753-14.562,4.957,7.706-1.881,15.829-.658,20.459.393a1.93,1.93,0,0,0,2.365-1.877V71.83A1.931,1.931,0,0,0,35.073,69.9ZM-13.667,94.056V69.9h-1.4A1.932,1.932,0,0,0-17,71.83v30.616a1.915,1.915,0,0,0,.726,1.5,1.936,1.936,0,0,0,1.639.372c4.63-1.052,12.753-2.275,20.459-.394-4.455-4.2-10.747-4.947-14.562-4.956A4.936,4.936,0,0,1-13.667,94.056Z"/>
    <path id="Forma_1-2" data-name="Forma 1" class="cls-2" d="M69.348,122.749a4.465,4.465,0,0,0-3.27-1.358H19.761a4.641,4.641,0,0,0-4.631,4.622v35.131a4.641,4.641,0,0,0,4.631,4.622H66.078a4.641,4.641,0,0,0,4.631-4.622V126.013A4.446,4.446,0,0,0,69.348,122.749ZM67,161.144a0.937,0.937,0,0,1-.926.924H19.761a0.937,0.937,0,0,1-.926-0.924V143.579H67v17.565Zm0-28.66H18.835v-6.471a0.937,0.937,0,0,1,.926-0.924H66.078a0.937,0.937,0,0,1,.926.924v6.471h0ZM22.541,154.672h7.41v3.7h-7.41v-3.7Zm11.116,0H44.772v3.7H33.657v-3.7Z"/>
    <path id="Forma_1_copy_3" data-name="Forma 1 copy 3" class="cls-2" d="M221.772,67.544a3.464,3.464,0,0,0-2.529-1.042H183.418a3.468,3.468,0,0,0-2.53,1.042,3.4,3.4,0,0,0-1.052,2.5V97a3.4,3.4,0,0,0,1.052,2.5,3.468,3.468,0,0,0,2.53,1.041h35.825a3.464,3.464,0,0,0,2.529-1.041,3.4,3.4,0,0,0,1.053-2.5V70.049A3.4,3.4,0,0,0,221.772,67.544ZM219.959,97a0.678,0.678,0,0,1-.213.5,0.69,0.69,0,0,1-.5.21H183.418a0.693,0.693,0,0,1-.5-0.21A0.678,0.678,0,0,1,182.7,97V83.525h37.257V97Zm0-21.989H182.7V70.048a0.678,0.678,0,0,1,.213-0.5,0.694,0.694,0,0,1,.5-0.21h35.825a0.689,0.689,0,0,1,.5.21,0.678,0.678,0,0,1,.213.5v4.965h0ZM185.568,92.037H191.3v2.837h-5.732V92.037Zm8.6,0h8.6v2.837h-8.6V92.037Z"/>
    <path class="cls-2" d="M314.011,75.241a1.361,1.361,0,0,1-2.039-.144L303.853,64.37a1.332,1.332,0,0,1,.125-1.752l0.4-.393h-2.236a6.743,6.743,0,0,0-6.766,6.7v29.5a4.045,4.045,0,0,0,4.059,4.022h17.682V72.166ZM334.8,62.226h-2.237l0.4,0.393a1.331,1.331,0,0,1,.125,1.752L324.962,75.1a1.361,1.361,0,0,1-2.039.144l-3.1-3.075V102.45H337.5a4.045,4.045,0,0,0,4.059-4.022V68.93A6.743,6.743,0,0,0,334.8,62.226ZM323.88,97.087a1.341,1.341,0,1,1,1.353-1.341A1.347,1.347,0,0,1,323.88,97.087Zm0-8.045a1.341,1.341,0,1,1,1.353-1.341A1.347,1.347,0,0,1,323.88,89.042Zm0-8.045a1.341,1.341,0,1,1,1.353-1.341A1.347,1.347,0,0,1,323.88,81ZM313.054,59.544l5.413,7.152,5.413-7.152H313.054Zm13.679,0.7-6.479,8.56,3.479,3.448,6.479-8.559Zm-16.532,0-3.479,3.448,6.479,8.559L316.68,68.8Z"/>
    <path id="Forma_1-3" data-name="Forma 1" class="cls-2" d="M275.113,39.916l-0.762.766V39.916h-3.743c-1.687,2.623-5.251,4.436-9.387,4.436s-7.7-1.813-9.388-4.436H248.09v0.766l-0.762-.766L233.863,53.463l7.364,7.412,6.861-6.9V88.487H274.35V53.973l6.861,6.9,7.365-7.414Z"/>
    <path id="Forma_1-4" data-name="Forma 1" class="cls-2" d="M26.592,4.078a22.257,22.257,0,0,0-9.608,42.365l0.7-13.474s-1.314-.431-1.6-0.571c-2.788-1.225-4.813-4.834-4.813-9.517,0-5.11,3.97-9.512,7.81-9.548h0.015c3.84,0.036,7.812,4.438,7.812,9.548,0,4.683-2.028,8.29-4.811,9.517-0.021.01-1.615,0.586-1.615,0.586L21.26,47.967a21.932,21.932,0,0,0,12.433-.5l0.691-13.352a7.168,7.168,0,0,1-4.351-3.01c-1.208-1.8.928-17.772,0.928-17.772h1.391V28.316h1.38V13.332h1.507V28.317h1.375V13.332h1.565V28.317h1.378V13.332h1.067S42.758,29.3,41.55,31.1a7.194,7.194,0,0,1-4.3,3l-0.061.023,0.6,11.485A22.258,22.258,0,0,0,26.592,4.078ZM14.535,20.615a6.141,6.141,0,0,1,.192-0.639,0.292,0.292,0,0,0-.162-0.325,0.268,0.268,0,0,0-.351.076s-0.152.243-.374,0.6a6.445,6.445,0,0,0-.629,1.417,11.685,11.685,0,0,0-.43,2.056,9.72,9.72,0,0,0-.032,1.192,5.639,5.639,0,0,0,.228,1.263,8.155,8.155,0,0,0,2,3.636,6.8,6.8,0,0,0,1.067.864l0.1,0.071c0.061,0.041.121,0.078,0.179,0.111a2,2,0,0,0,.43.178,0.242,0.242,0,0,0,.207-0.433,2.769,2.769,0,0,1-.318-0.347,6.244,6.244,0,0,1-.409-0.558c-0.109-.16-0.238-0.338-0.357-0.512A18,18,0,0,1,14.464,25.8a4.588,4.588,0,0,1-.2-0.953,9.65,9.65,0,0,1-.056-1.019,13.533,13.533,0,0,1,.084-1.89A7.381,7.381,0,0,1,14.535,20.615ZM26.592-.06A26.418,26.418,0,1,0,53.06,26.357,26.476,26.476,0,0,0,26.592-.06Zm0,50.865a24.449,24.449,0,1,1,24.5-24.448A24.5,24.5,0,0,1,26.592,50.805Z"/>
    <path id="Forma_1-5" data-name="Forma 1" class="cls-2" d="M150.844,31.1a0.275,0.275,0,0,0-.21-0.1H96.451a0.276,0.276,0,0,0-.21.1,0.28,0.28,0,0,0-.065.223c0.008,0.051.825,5.1,7.169,5.1h40.4c6.343,0,7.161-5.048,7.169-5.1A0.283,0.283,0,0,0,150.844,31.1Zm-23.226,3.555h-8.151V32.767h8.151v1.885Zm-25.539-5.614h42.926a1.128,1.128,0,0,0,1.124-1.131V1.383A1.128,1.128,0,0,0,145.005.252H102.079a1.128,1.128,0,0,0-1.124,1.131V27.908A1.128,1.128,0,0,0,102.079,29.039ZM104.89,4.21h37.3V25.08h-37.3V4.21Z"/>
    <path id="Forma_1-6" data-name="Forma 1" class="cls-2" d="M173.455,137.8v17.312a1.876,1.876,0,0,0,3.751,0V137.8A1.876,1.876,0,0,0,173.455,137.8ZM167.569,157H171.7V136.445a2.643,2.643,0,0,0,.029-0.3,16.038,16.038,0,1,1,32.076,0,2.509,2.509,0,0,0,.04.4V157h4.129a5.286,5.286,0,0,0,5.207-5.359V140.921a5.341,5.341,0,0,0-3.76-5.145,21.657,21.657,0,0,0-43.308,0,5.335,5.335,0,0,0-3.751,5.141V151.64A5.287,5.287,0,0,0,167.569,157Zm30.767-19.2v17.312a1.876,1.876,0,0,0,3.751,0V137.8A1.876,1.876,0,0,0,198.336,137.8Z"/>
    <path id="Forma_1-7" data-name="Forma 1" class="cls-2" d="M285.812,18.822a7.7,7.7,0,0,0,.142,1.187l0.934,4.667a9.455,9.455,0,0,0,9.013,7.386h6.707a8.373,8.373,0,0,0,8.245-7.758l0.163-2.69,3.146-3.145a1.972,1.972,0,0,0,.578-1.394V13.821a1.973,1.973,0,0,0-1.973-1.972H289.983a5.4,5.4,0,0,0-4.347,2.182,6.063,6.063,0,0,0-4.291.047,5.386,5.386,0,0,0-4.382-2.229H254.18a1.972,1.972,0,0,0-1.973,1.972v3.254a1.972,1.972,0,0,0,.578,1.394l3.146,3.145,0.163,2.69a8.373,8.373,0,0,0,8.245,7.758h6.706a9.454,9.454,0,0,0,9.013-7.386l0.934-4.667a7.584,7.584,0,0,0,.141-1.169A4,4,0,0,1,285.812,18.822ZM257.1,17.035a1.479,1.479,0,0,1-2.093,0,1.479,1.479,0,0,1,1.045-2.524A1.479,1.479,0,0,1,257.1,17.035Zm20.023,2.2L276.19,23.9a5.543,5.543,0,0,1-5.144,4.216h-6.707a4.43,4.43,0,0,1-4.307-4.053l-0.27-4.459a3.544,3.544,0,0,1,3.59-3.814H274.3A2.708,2.708,0,0,1,277.124,19.235Zm30.061,0.372-0.27,4.459a4.43,4.43,0,0,1-4.307,4.052H295.9a5.543,5.543,0,0,1-5.144-4.216l-0.934-4.667a2.708,2.708,0,0,1,2.823-3.442h10.948A3.544,3.544,0,0,1,307.185,19.607Zm4.755-2.572a1.48,1.48,0,1,1,.432-1.045A1.493,1.493,0,0,1,311.94,17.035Z"/>
    <path class="cls-2" d="M192.492,19.5h-0.681V19.417a2.967,2.967,0,0,0-2.962-2.972h-9.7a2.967,2.967,0,0,0-2.962,2.972V19.5h-0.681a2.265,2.265,0,0,0-2.262,2.27V33.518a0.875,0.875,0,0,0,.874.877H193.88a0.875,0.875,0,0,0,.874-0.877V21.773A2.266,2.266,0,0,0,192.492,19.5Zm1.388,18.388H174.119a0.875,0.875,0,0,0-.874.877V42.25a6.656,6.656,0,0,0,6.645,6.667h8.219a6.656,6.656,0,0,0,6.645-6.667V38.768A0.875,0.875,0,0,0,193.88,37.891ZM213.585-9.984a2.216,2.216,0,0,0-2.7-.367h0a13.834,13.834,0,0,0-6.816,11.9A1.235,1.235,0,0,0,205.3,2.79h7.685a1.235,1.235,0,0,0,1.233-1.237V-8.376A2.293,2.293,0,0,0,213.585-9.984Zm2.236,34.162h-0.53V6.679a0.394,0.394,0,0,0-.393-0.393H203.385a0.393,0.393,0,0,0-.392.393v17.5h-0.531a2.906,2.906,0,0,0-2.9,2.911V46.006a2.906,2.906,0,0,0,2.9,2.911h13.359a2.906,2.906,0,0,0,2.9-2.911V27.089A2.906,2.906,0,0,0,215.821,24.178Z"/>
    <path id="Forma_1-8" data-name="Forma 1" class="cls-2" d="M390.214,6.612V6.535H343V6.612a3.117,3.117,0,0,0-2.849,2.782V40.272a3.011,3.011,0,0,0,.415,1.545,2.9,2.9,0,0,0,2.693,1.572H360.3v4.278h-3.237a1.419,1.419,0,1,0,0,2.837H376.15a1.419,1.419,0,1,0,0-2.837h-3.237V43.39h17.042a2.887,2.887,0,0,0,2.693-1.572,3.1,3.1,0,0,0,.441-1.545V9.394A3.191,3.191,0,0,0,390.214,6.612Zm0,3.041v30.62a0.222,0.222,0,0,1-.259.258h-46.7A0.222,0.222,0,0,1,343,40.272V9.394h47.216V9.652Z"/>
    <path id="Forma_1-9" data-name="Forma 1" class="cls-2" d="M369.481,132.1a6.224,6.224,0,0,0-1.91,4.564V160.7a6.516,6.516,0,0,0,6.484,6.472h1.853V130.2h-1.853A6.244,6.244,0,0,0,369.481,132.1Zm35.142-6.53a2.764,2.764,0,0,0-2.778-2.773H385.171a2.766,2.766,0,0,0-2.779,2.773V130.2h-3.7v36.979h29.642V130.2h-3.706v-4.623Zm-3.7,4.623H386.1v-3.7h14.821v3.7Zm16.616,1.907a6.244,6.244,0,0,0-4.574-1.907h-1.853v36.979h1.853a6.516,6.516,0,0,0,6.484-6.472V136.667A6.224,6.224,0,0,0,417.534,132.1Z"/>
    <path id="Forma_1-10" data-name="Forma 1" class="cls-2" d="M155.635,48.39a1.8,1.8,0,0,0-2.524.309c-3.426,4.39-14.808,18.834-20.322,23.948-4.815,4.466-9.046,1.921-10.946.273v0s-0.973-1.009-3.2-.316l-0.011,0c-0.9.3-2.132,0.675-3.79,1.157a4.159,4.159,0,0,0-3.157,4.13,9.245,9.245,0,0,0,1.744,4.793,22.891,22.891,0,0,0,13.027,5.965c6.2,0.657,7.72-1.912,7.72-1.912s3.784-5.109,7.329-10.3a0.118,0.118,0,0,1,.011-0.013,25.06,25.06,0,0,1,6.758-6.657c0.21-.092.41-0.179,0.6-0.249,0.392-.117,2.512-0.614,2.688,2.265l0.9,15.376,0,0.2v0.006l0.008,0.28a1.078,1.078,0,0,0,1.091,1.121,1.134,1.134,0,0,0,.927-1.29V87.317c0.33-4.013,1.771-18.934,3.106-21.654,4.53-10.354.471-15.359-1.968-17.273h0Z"/>
    <path id="Forma_1-11" data-name="Forma 1" class="cls-2" d="M87.854,42.992H64.393a4.042,4.042,0,0,0-4.058,4.03V94.291a4.04,4.04,0,0,0,4.058,4.026H87.854a4.041,4.041,0,0,0,4.056-4.026V47.022A4.044,4.044,0,0,0,87.854,42.992ZM70.334,45.44H81.917a1.157,1.157,0,0,1,0,1.941H70.334A1.156,1.156,0,0,1,70.334,45.44Zm5.791,48.9a2.57,2.57,0,1,1,2.585-2.573A2.584,2.584,0,0,1,76.125,94.34ZM88.87,85.531H63.377V49.793H88.87V85.531Z"/>
    <path id="Forma_1-12" data-name="Forma 1" class="cls-2" d="M370.851,96.989A10.594,10.594,0,1,0,381.43,86.426,10.62,10.62,0,0,0,370.851,96.989Zm33.386-17.854-11.408-.015c-0.819-3.256-1.639-6.511-4.9-6.516l-13.038-.018c-3.26,0-4.07,3.249-4.881,6.5L358.6,79.073a3.255,3.255,0,0,0-3.255,3.25l0.039,29.29a3.279,3.279,0,0,0,3.264,3.259l45.634,0.061a3.256,3.256,0,0,0,3.255-3.25l-0.04-29.29A3.277,3.277,0,0,0,404.237,79.135Zm-22.773,32.31a14.442,14.442,0,1,1,14.445-14.422A14.5,14.5,0,0,1,381.464,111.445ZM404.25,88.9l-6.519-.009,0-3.254,6.519,0.009Z"/>
    <path id="Forma_1_copy_2" data-name="Forma 1 copy 2" class="cls-2" d="M353.082,127.56c-1.831-.336-4.931-0.339-8.626-1.027l0.508,3.042a0.95,0.95,0,0,1-.782,1.1,0.965,0.965,0,0,1-.159.013,0.951,0.951,0,0,1-.938-0.795l-0.528-3.161a1.067,1.067,0,0,0-.718-0.785c-0.19-.052-0.381-0.106-0.575-0.161a0.365,0.365,0,0,0-.5.444l0.266,1.595a0.954,0.954,0,0,1-.782,1.1,1.087,1.087,0,0,1-.159.013,0.952,0.952,0,0,1-.938-0.794l-0.439-2.628a1.271,1.271,0,0,0-.693-0.866q-0.341-.141-0.683-0.3c-0.321-.143-0.53.015-0.471,0.361l0.227,1.358a0.953,0.953,0,1,1-1.879.315l-0.466-2.8a1.567,1.567,0,0,0-.648-0.952c-0.283-.176-0.568-0.359-0.852-0.549s-0.478-.077-0.42.269l0.326,1.958a0.949,0.949,0,0,1-.782,1.095,0.859,0.859,0,0,1-.158.014,0.951,0.951,0,0,1-.938-0.8l-0.81-4.858c-0.189-.217-0.364-0.429-0.5-0.613-1.172-1.557-3.513-4.4-5.447-5.081a3.078,3.078,0,0,0-4,2.1,5.424,5.424,0,0,0,.35,2.478,3.546,3.546,0,0,0,.671,1.239,0.985,0.985,0,0,1,.1,1.539,22.333,22.333,0,0,1-6.305,3.86c-5.291,1.959-6.217-.74-6.217-0.74s-1.171-3.793-3.046-5.159a3.544,3.544,0,0,0-2.422-.4,3.252,3.252,0,0,0-.676.254c0.418,2.444,2.252,8.341,10.271,12.209,10.4,5.024,31.119,6.026,35,6.171,0.351,0.013.355,0.073,0.01,0.132a83.362,83.362,0,0,1-22.074.683c-11.98-1.473-23-4.921-25.892-14.629-0.059.212-.116,0.411-0.17,0.581a15.732,15.732,0,0,0-.987,5.634,8.837,8.837,0,0,1-.554,2.418,10.49,10.49,0,0,0-.652,3.376c-0.041,1.426-.04,2.644-0.029,3.492a2.636,2.636,0,0,0,1.056,2.012,6.152,6.152,0,0,0,1.607.68c0.68,0.176,1.733.49,2.4,0.7a4.959,4.959,0,0,0,1,.21c0.7,0.072,1.515-.021,1.821,0a0.519,0.519,0,0,1,.555.358,0.778,0.778,0,0,0,.82.327,1.5,1.5,0,0,0,1.111-.423,1.007,1.007,0,0,1,.715-0.423,0.425,0.425,0,0,1,.424.423,0.679,0.679,0,0,0,.767.423,1.292,1.292,0,0,0,1.031-.451,0.914,0.914,0,0,1,.663-0.45,0.981,0.981,0,0,1,.687.45,1.276,1.276,0,0,0,.98.451,1.225,1.225,0,0,0,.952-0.423,0.5,0.5,0,0,1,.766,0,2.6,2.6,0,0,0,1.429.423,1.3,1.3,0,0,0,1.059-.343,0.673,0.673,0,0,1,.608-0.345,1.038,1.038,0,0,1,.741.345,1.338,1.338,0,0,0,1.137.158,1.8,1.8,0,0,0,1.111-.661,0.359,0.359,0,0,1,.61-0.108,2.613,2.613,0,0,0,1.243.5,2.048,2.048,0,0,0,1.3-.185,1.265,1.265,0,0,1,.845-0.239,0.52,0.52,0,0,1,.423.477,0.828,0.828,0,0,0,.9.4,2.4,2.4,0,0,0,1.218-.265,1.064,1.064,0,0,1,.767-0.185,0.491,0.491,0,0,1,.449.344,0.5,0.5,0,0,0,.555.263,2.8,2.8,0,0,0,1.006-.211,1.591,1.591,0,0,1,.767-0.158,0.375,0.375,0,0,1,.319.345,1.634,1.634,0,0,0,1.269.29h0.106a1.3,1.3,0,0,0,1.27-.423,0.45,0.45,0,0,1,.9,0,1.075,1.075,0,0,0,1.111.423,3.9,3.9,0,0,0,1.588-.29,0.844,0.844,0,0,1,.873,0,3.772,3.772,0,0,0,1.64.29,2.4,2.4,0,0,0,1.509-.37,1.582,1.582,0,0,1,.713-0.5,0.6,0.6,0,0,1,.661.238,1.793,1.793,0,0,0,1.459.127l0.206-.041a2.054,2.054,0,0,0,1.406-.748,0.822,0.822,0,0,1,.45-0.556,0.813,0.813,0,0,1,.608.345,1.233,1.233,0,0,0,1.164.157,1.43,1.43,0,0,0,.979-0.978,1.255,1.255,0,0,1,.688-0.924,0.378,0.378,0,0,1,.555.343c0,0.293.532,0.328,1.188,0.082a1.76,1.76,0,0,0,1.193-.981,0.768,0.768,0,0,1,.4-0.688,0.639,0.639,0,0,1,.635.078,0.859,0.859,0,0,0,.873-0.211,2.061,2.061,0,0,0,.742-0.872,5.073,5.073,0,0,1,1.112-1.192,5.869,5.869,0,0,0,1.8-5.869C357.764,126.98,356.971,128.276,353.082,127.56Z"/>
  </g>
</svg>
